PathFileType	4	(X/Y/Z)	C:/Users/opensim2020/Desktop/walking_exp_matlab/subject02_walking11_straight_01.trc	
DataRate	CameraRate	NumFrames	NumMarkers	Units	OrigDataRate	OrigDataStartFrame	OrigNumFrames	
100.00	100.00	4	42	mm	100.00	767	267	
Frame#	Time	LFHD			RFHD			LBHD			RBHD			C7			T10			CLAV			STRN			RBAK			LSHO			LUPA			LELB			LFRM			LWRA			LWRB			LFIN			RSHO			RUPA			RELB			RFRM			RWRA			RWRB			RFIN			LASI			RASI			LPSI			RPSI			LTHI			LKNE			LTIB			LANK			LHEE			LTOE			RTHI			RKNE			RTIB			RANK			RHEE			RTOE			*39			*40			*41			
		X1	Y1	Z1	X2	Y2	Z2	X3	Y3	Z3	X4	Y4	Z4	X5	Y5	Z5	X6	Y6	Z6	X7	Y7	Z7	X8	Y8	Z8	X9	Y9	Z9	X10	Y10	Z10	X11	Y11	Z11	X12	Y12	Z12	X13	Y13	Z13	X14	Y14	Z14	X15	Y15	Z15	X16	Y16	Z16	X17	Y17	Z17	X18	Y18	Z18	X19	Y19	Z19	X20	Y20	Z20	X21	Y21	Z21	X22	Y22	Z22	X23	Y23	Z23	X24	Y24	Z24	X25	Y25	Z25	X26	Y26	Z26	X27	Y27	Z27	X28	Y28	Z28	X29	Y29	Z29	X30	Y30	Z30	X31	Y31	Z31	X32	Y32	Z32	X33	Y33	Z33	X34	Y34	Z34	X35	Y35	Z35	X36	Y36	Z36	X37	Y37	Z37	X38	Y38	Z38	X39	Y39	Z39	X40	Y40	Z40	X41	Y41	Z41	X42	Y42	Z42	

34	0.330	1466.86670	-972.72644	1739.21863	1609.82898	-971.85992	1715.58972	1453.97534	-1090.60815	1647.17139	1594.26257	-1101.64722	1619.30151	1520.11035	-1136.07019	1513.55945	1521.66663	-1203.87830	1244.05823	1507.74158	-998.79242	1442.74170	1521.63220	-956.26709	1266.82642	1586.16431	-1200.47571	1346.75879	1338.92041	-1067.05688	1487.14734	1257.40356	-1106.76465	1291.87964	1247.33179	-1132.87549	1153.17395	1228.62805	-1145.11743	1021.87537	1246.95142	-1105.66809	890.34454	1221.87952	-1154.23999	898.64691	1214.75623	-1142.52258	832.91870	1704.75525	-1052.09180	1479.53381	1796.85632	-1061.54688	1288.69421	1813.74561	-1028.84778	1144.19397	1824.04822	-979.65338	1033.86633	1792.63794	-915.95477	916.95605	1832.70532	-955.07019	906.02795	1828.66052	-905.93811	852.65924	1400.28467	-974.03009	975.49408	1656.84888	-994.04553	960.78064	1462.29260	-1188.51196	1020.87170	1576.14612	-1201.40698	1022.00934	1323.91943	-976.51294	674.33441	1351.22266	-932.12726	480.47299	1344.76294	-907.55194	288.78082	1358.60461	-803.93127	87.22901	1413.04871	-821.84088	50.81901	1340.98901	-647.28442	98.42473	1701.56262	-1118.22229	662.74231	1656.49573	-1153.16150	454.62369	1655.03198	-1229.54114	281.70923	1611.41675	-1275.35803	93.13800	1552.48267	-1310.65186	39.94113	1643.59351	-1131.49084	30.42318	1558.26575	-1082.63782	1785.47278	-3356.90869	2845.89941	1034.13989			 
35	0.340	1465.61963	-966.09454	1738.60754	1608.58252	-964.86499	1714.89941	1452.83972	-1083.63416	1646.02136	1593.16174	-1094.34045	1618.14014	1518.88513	-1128.43921	1512.49475	1520.74219	-1196.13904	1243.02991	1506.69666	-991.12769	1441.76770	1521.02332	-948.15039	1265.98572	1585.14905	-1192.75720	1345.93933	1337.80200	-1059.19751	1485.94165	1256.34998	-1099.07788	1290.74988	1246.19238	-1126.02380	1152.30591	1227.52075	-1139.02563	1021.33728	1246.94275	-1099.55310	889.43231	1220.16187	-1149.30212	897.96320	1213.15186	-1138.26062	832.08337	1703.76050	-1044.62842	1478.56091	1795.74597	-1054.30811	1287.62939	1812.74292	-1020.63782	1143.28430	1822.50269	-970.84955	1032.96082	1791.78552	-906.45471	917.03577	1831.62390	-945.67279	905.56970	1827.67822	-896.11230	852.55304	1399.91394	-965.75311	974.35077	1656.65710	-986.33484	959.71136	1461.99011	-1179.74561	1019.35425	1575.50513	-1193.47412	1020.93488	1323.47046	-966.29291	673.95990	1350.67163	-920.97522	480.53021	1344.19067	-897.06506	288.71915	1358.46033	-794.89020	87.01513	1412.66467	-812.18835	49.65057	1341.08398	-638.13098	97.24830	1701.49023	-1112.73792	662.30609	1656.38684	-1149.21887	454.46765	1654.62122	-1227.16077	282.09784	1611.13904	-1274.76538	94.02090	1552.05249	-1310.23315	41.00534	1643.79285	-1131.41577	30.50572	1557.35730	-1076.35461	1784.76294	-3360.43335	2845.24414	1034.19763			 
36	0.350	1464.25208	-959.24811	1737.83984	1607.11584	-957.78864	1714.14539	1451.61523	-1076.56299	1644.95105	1591.91138	-1087.09949	1617.02771	1517.59900	-1120.86182	1511.51904	1519.66809	-1188.24573	1241.97705	1505.51514	-983.35065	1440.83557	1519.81250	-940.68054	1265.02197	1583.77563	-1185.11462	1344.85303	1336.51111	-1051.30664	1484.76416	1254.88770	-1091.60828	1289.54065	1244.82373	-1119.41809	1151.45886	1225.83472	-1133.16296	1020.41522	1245.31726	-1094.56030	888.42865	1218.31799	-1143.96106	897.56824	1211.72229	-1133.36914	830.97595	1702.64758	-1037.05200	1477.71802	1794.39246	-1046.93774	1286.61670	1811.90076	-1012.72064	1142.53442	1821.50549	-962.26831	1032.51465	1790.63391	-897.18311	916.77704	1830.40771	-936.31732	905.12213	1826.61963	-886.55414	852.61053	1399.41663	-957.22778	973.51025	1656.26807	-978.41913	958.64630	1461.34424	-1171.66809	1018.30817	1574.81287	-1185.41345	1020.00299	1322.64233	-955.89441	673.94836	1350.03625	-909.91962	480.63556	1343.49121	-887.06799	288.69104	1358.36035	-786.87262	86.28219	1412.57446	-805.06873	49.47931	1341.12646	-630.24768	95.49035	1700.72766	-1106.81287	661.97394	1656.21924	-1145.06128	454.31262	1654.25049	-1224.80603	282.71677	1610.89941	-1274.21948	94.91490	1551.80322	-1309.76892	42.26111	1643.92395	-1131.33337	30.48721	1556.03625	-1069.65417	1783.69836	-3360.32690	2845.27466	1034.21057			 
37	0.360	1462.95911	-952.17700	1737.25378	1605.54749	-950.76227	1713.63000	1450.19775	-1069.46155	1643.90601	1590.52881	-1079.71362	1615.91760	1516.17004	-1113.13574	1510.52197	1518.56873	-1180.29431	1241.00989	1504.20557	-975.52094	1440.00330	1518.62817	-933.01538	1264.16333	1582.95117	-1177.68701	1344.47644	1335.12256	-1043.39709	1483.56433	1253.61853	-1084.44958	1288.54907	1243.55811	-1112.36572	1150.60950	1224.46777	-1127.02649	1019.97125	1243.00854	-1089.76843	886.87378	1216.53357	-1138.59985	897.04791	1209.54370	-1129.01111	830.50348	1701.27856	-1029.46643	1476.93091	1792.82227	-1039.38477	1285.69019	1810.69495	-1004.65259	1141.80127	1820.35303	-953.74603	1031.86682	1789.71863	-887.83020	916.99414	1829.07336	-927.32355	904.71088	1825.47070	-877.12610	852.55762	1398.36755	-948.53149	972.61475	1655.56824	-970.37183	957.54657	1460.66882	-1163.46362	1017.23456	1574.27527	-1177.40930	1019.26746	1321.57446	-945.45605	674.27118	1349.28638	-898.92487	480.74167	1342.78320	-877.62964	288.57764	1358.50415	-779.66772	85.24801	1412.64697	-797.83362	48.00560	1341.10657	-623.35950	93.16243	1700.03564	-1100.90466	661.66138	1656.24915	-1140.69897	454.23413	1653.99011	-1222.31873	283.39566	1610.87866	-1273.62744	96.11302	1551.61963	-1309.37976	43.75768	1644.07556	-1131.18323	30.35514	1554.57190	-1062.90039	1782.61938	-3356.96729	2845.97070	1034.22046			 
